<svg width="56" height="27" viewBox="0 0 56 27" fill="none" xmlns="http://www.w3.org/2000/svg">
<rect width="54.5454" height="26.1191" transform="translate(0.822784 0.272827)" fill="white"/>
<g clip-path="url(#clip0_25_1496)">
<path d="M26.4213 22.7607C26.2175 22.7607 26.0317 22.7207 25.8638 22.6408C25.696 22.5568 25.5601 22.433 25.4562 22.2691H25.4142L25.3543 22.6887H24.7488V18.3547H25.4802V19.9013H25.5161C25.5801 19.8053 25.658 19.7254 25.7499 19.6615C25.8418 19.5935 25.9477 19.5436 26.0676 19.5116C26.1875 19.4796 26.3194 19.4637 26.4633 19.4637C26.6991 19.4637 26.9069 19.5216 27.0867 19.6375C27.2705 19.7534 27.4144 19.9332 27.5183 20.177C27.6222 20.4168 27.6742 20.7265 27.6742 21.1062C27.6742 21.4898 27.6222 21.8035 27.5183 22.0473C27.4184 22.2911 27.2745 22.4709 27.0867 22.5868C26.9029 22.7027 26.6811 22.7607 26.4213 22.7607ZM26.1935 22.1312C26.3734 22.1312 26.5152 22.0973 26.6191 22.0293C26.727 21.9574 26.803 21.8495 26.8469 21.7056C26.8949 21.5617 26.9189 21.3799 26.9189 21.1601V21.0762C26.9189 20.8524 26.8949 20.6686 26.8469 20.5247C26.803 20.3768 26.727 20.2689 26.6191 20.201C26.5152 20.1291 26.3734 20.0931 26.1935 20.0931C26.0696 20.0931 25.9617 20.1151 25.8698 20.159C25.7819 20.203 25.708 20.2669 25.648 20.3508C25.5921 20.4348 25.5501 20.5387 25.5221 20.6626C25.4942 20.7865 25.4802 20.9263 25.4802 21.0822V21.1601C25.4802 21.3679 25.5042 21.5438 25.5521 21.6876C25.6041 21.8315 25.682 21.9414 25.7859 22.0173C25.8938 22.0933 26.0297 22.1312 26.1935 22.1312ZM28.5961 23.7797C28.4483 23.7797 28.3284 23.7677 28.2364 23.7438C28.1445 23.7238 28.0926 23.7118 28.0806 23.7078V23.1863H28.4163C28.5002 23.1863 28.5841 23.1643 28.6681 23.1203C28.752 23.0764 28.8279 23.0164 28.8958 22.9405C28.9638 22.8646 29.0137 22.7806 29.0457 22.6887L27.8168 19.5356H28.5841L29.1716 21.0462C29.1996 21.1142 29.2275 21.2001 29.2555 21.304C29.2875 21.4079 29.3195 21.5158 29.3514 21.6277C29.3834 21.7356 29.4094 21.8335 29.4294 21.9214H29.4593C29.4753 21.8615 29.4933 21.7935 29.5133 21.7176C29.5333 21.6417 29.5532 21.5637 29.5732 21.4838C29.5972 21.4039 29.6212 21.326 29.6452 21.25C29.6691 21.1741 29.6891 21.1082 29.7051 21.0522L30.1847 19.5356H30.928L29.873 22.5269C29.813 22.6947 29.7451 22.8546 29.6691 23.0064C29.5972 23.1583 29.5113 23.2922 29.4114 23.4081C29.3155 23.524 29.1996 23.6139 29.0637 23.6778C28.9318 23.7458 28.776 23.7797 28.5961 23.7797ZM34.2459 22.7607C33.6105 22.7607 33.117 22.5908 32.7653 22.2511C32.4136 21.9074 32.2378 21.3679 32.2378 20.6326C32.2378 20.149 32.3197 19.7514 32.4835 19.4397C32.6514 19.124 32.8912 18.8902 33.2029 18.7383C33.5186 18.5825 33.8962 18.5045 34.3358 18.5045C34.5996 18.5045 34.8474 18.5345 35.0792 18.5944C35.311 18.6544 35.5148 18.7463 35.6906 18.8702C35.8705 18.9901 36.0103 19.1419 36.1102 19.3258C36.2101 19.5096 36.2601 19.7274 36.2601 19.9792H35.4568C35.4568 19.8473 35.4269 19.7314 35.3669 19.6315C35.311 19.5276 35.231 19.4417 35.1271 19.3737C35.0272 19.3018 34.9113 19.2499 34.7794 19.2179C34.6476 19.1819 34.5077 19.1639 34.3598 19.1639C34.14 19.1639 33.9462 19.1939 33.7784 19.2538C33.6145 19.3098 33.4766 19.3977 33.3647 19.5176C33.2568 19.6335 33.1749 19.7794 33.119 19.9552C33.067 20.131 33.041 20.3369 33.041 20.5726V20.6985C33.041 21.0222 33.087 21.288 33.1789 21.4958C33.2708 21.7036 33.4087 21.8575 33.5925 21.9574C33.7804 22.0533 34.0121 22.1013 34.2879 22.1013C34.5237 22.1013 34.7295 22.0653 34.9053 21.9934C35.0852 21.9214 35.225 21.8175 35.3249 21.6816C35.4289 21.5418 35.4808 21.3719 35.4808 21.1721V21.1301H34.168V20.4827H36.2601V22.6887H35.7026L35.6367 22.2331C35.5168 22.353 35.3889 22.4529 35.253 22.5329C35.1171 22.6088 34.9673 22.6647 34.8034 22.7007C34.6396 22.7407 34.4537 22.7607 34.2459 22.7607ZM38.3519 22.7607C38.0082 22.7607 37.7204 22.7027 37.4887 22.5868C37.2569 22.4669 37.083 22.2851 36.9671 22.0413C36.8512 21.7975 36.7933 21.4878 36.7933 21.1122C36.7933 20.7325 36.8512 20.4228 36.9671 20.183C37.083 19.9392 37.2569 19.7594 37.4887 19.6435C37.7204 19.5236 38.0082 19.4637 38.3519 19.4637C38.6996 19.4637 38.9873 19.5236 39.2151 19.6435C39.4469 19.7594 39.6207 19.9392 39.7366 20.183C39.8525 20.4228 39.9104 20.7325 39.9104 21.1122C39.9104 21.4878 39.8525 21.7975 39.7366 22.0413C39.6207 22.2851 39.4469 22.4669 39.2151 22.5868C38.9873 22.7027 38.6996 22.7607 38.3519 22.7607ZM38.3519 22.1612C38.5437 22.1612 38.6976 22.1252 38.8134 22.0533C38.9333 21.9774 39.0193 21.8655 39.0712 21.7176C39.1272 21.5657 39.1551 21.3779 39.1551 21.1541V21.0702C39.1551 20.8464 39.1272 20.6606 39.0712 20.5127C39.0193 20.3608 38.9333 20.2489 38.8134 20.177C38.6976 20.1011 38.5437 20.0631 38.3519 20.0631C38.16 20.0631 38.0042 20.1011 37.8843 20.177C37.7684 20.2489 37.6825 20.3608 37.6265 20.5127C37.5746 20.6606 37.5486 20.8464 37.5486 21.0702V21.1541C37.5486 21.3779 37.5746 21.5657 37.6265 21.7176C37.6825 21.8655 37.7684 21.9774 37.8843 22.0533C38.0042 22.1252 38.16 22.1612 38.3519 22.1612ZM41.1972 22.6887L40.0822 18.5765H40.9095L41.5749 21.2201C41.5869 21.26 41.5989 21.316 41.6108 21.3879C41.6228 21.4558 41.6348 21.5278 41.6468 21.6037C41.6588 21.6796 41.6688 21.7476 41.6768 21.8075H41.7068C41.7147 21.7596 41.7207 21.7076 41.7247 21.6517C41.7327 21.5957 41.7407 21.5398 41.7487 21.4838C41.7607 21.4279 41.7707 21.3779 41.7787 21.334C41.7867 21.286 41.7927 21.248 41.7967 21.2201L42.4141 18.5765H43.4152L44.0326 21.2201C44.0446 21.26 44.0566 21.316 44.0686 21.3879C44.0806 21.4558 44.0926 21.5278 44.1046 21.6037C44.1166 21.6796 44.1266 21.7476 44.1345 21.8075H44.1645C44.1725 21.7636 44.1805 21.7156 44.1885 21.6637C44.2005 21.6077 44.2105 21.5538 44.2185 21.5018C44.2305 21.4459 44.2424 21.3939 44.2544 21.3459C44.2664 21.298 44.2764 21.256 44.2844 21.2201L44.9498 18.5765H45.6811L44.5602 22.6887H43.667L43.0016 19.9912C42.9896 19.9352 42.9756 19.8713 42.9596 19.7994C42.9476 19.7234 42.9356 19.6495 42.9236 19.5776C42.9157 19.5016 42.9077 19.4357 42.8997 19.3797H42.8757C42.8717 19.4397 42.8637 19.5096 42.8517 19.5895C42.8437 19.6655 42.8337 19.7394 42.8217 19.8113C42.8097 19.8833 42.7978 19.9432 42.7858 19.9912L42.1264 22.6887H41.1972ZM46.5222 22.7607C46.4342 22.7607 46.3323 22.7487 46.2164 22.7247C46.1045 22.7047 45.9946 22.6647 45.8867 22.6048C45.7828 22.5449 45.6969 22.4569 45.629 22.341C45.561 22.2211 45.5271 22.0653 45.5271 21.8735C45.5271 21.6577 45.575 21.4798 45.6709 21.3399C45.7668 21.1961 45.9007 21.0842 46.0726 21.0043C46.2484 20.9203 46.4562 20.8624 46.696 20.8304C46.9398 20.7944 47.2055 20.7765 47.4933 20.7765V20.5187C47.4933 20.4268 47.4793 20.3449 47.4513 20.2729C47.4233 20.201 47.3714 20.145 47.2954 20.1051C47.2235 20.0611 47.1136 20.0391 46.9657 20.0391C46.8179 20.0391 46.702 20.0571 46.6181 20.0931C46.5341 20.1291 46.4762 20.173 46.4442 20.225C46.4123 20.2769 46.3963 20.3309 46.3963 20.3868V20.4707H45.6889C45.6849 20.4508 45.6829 20.4308 45.6829 20.4108C45.6829 20.3908 45.6829 20.3668 45.6829 20.3389C45.6829 20.159 45.7369 20.0032 45.8448 19.8713C45.9527 19.7394 46.1025 19.6395 46.2944 19.5716C46.4862 19.4996 46.708 19.4637 46.9598 19.4637C47.2475 19.4637 47.4833 19.5036 47.6671 19.5835C47.8549 19.6635 47.9948 19.7774 48.0867 19.9252C48.1786 20.0731 48.2246 20.2529 48.2246 20.4647V21.9514C48.2246 22.0273 48.2466 22.0813 48.2905 22.1132C48.3345 22.1452 48.3825 22.1612 48.4344 22.1612H48.6262V22.6647C48.5863 22.6807 48.5283 22.6987 48.4524 22.7187C48.3765 22.7427 48.2826 22.7547 48.1707 22.7547C48.0667 22.7547 47.9728 22.7367 47.8889 22.7007C47.809 22.6687 47.741 22.6208 47.6851 22.5568C47.6291 22.4929 47.5892 22.417 47.5652 22.329H47.5292C47.4613 22.413 47.3794 22.4889 47.2835 22.5568C47.1915 22.6208 47.0816 22.6707 46.9538 22.7067C46.8299 22.7427 46.686 22.7607 46.5222 22.7607ZM46.744 22.1612C46.8638 22.1612 46.9697 22.1432 47.0617 22.1073C47.1576 22.0713 47.2355 22.0213 47.2954 21.9574C47.3594 21.8934 47.4073 21.8155 47.4393 21.7236C47.4753 21.6317 47.4933 21.5318 47.4933 21.4239V21.28C47.2735 21.28 47.0697 21.294 46.8818 21.322C46.698 21.3499 46.5501 21.4019 46.4382 21.4778C46.3303 21.5538 46.2764 21.6617 46.2764 21.8015C46.2764 21.8735 46.2924 21.9374 46.3243 21.9934C46.3603 22.0453 46.4123 22.0873 46.4802 22.1192C46.5521 22.1472 46.64 22.1612 46.744 22.1612ZM49.4455 23.7797C49.3056 23.7797 49.1737 23.7518 49.0498 23.6958C48.9259 23.6399 48.826 23.5559 48.7501 23.444C48.6742 23.3361 48.6362 23.2023 48.6362 23.0424C48.6362 22.8666 48.6862 22.7287 48.7861 22.6288C48.89 22.5249 49.0039 22.4469 49.1278 22.395C49.0358 22.347 48.9599 22.2831 48.9 22.2032C48.844 22.1232 48.816 22.0273 48.816 21.9154C48.816 21.7636 48.872 21.6437 48.9839 21.5558C49.0958 21.4638 49.2237 21.4039 49.3675 21.3759C49.2197 21.284 49.1058 21.1661 49.0259 21.0222C48.9499 20.8784 48.912 20.7145 48.912 20.5307C48.912 20.3109 48.9639 20.1231 49.0678 19.9672C49.1757 19.8073 49.3316 19.6835 49.5354 19.5955C49.7392 19.5076 49.985 19.4637 50.2727 19.4637C50.3886 19.4637 50.5005 19.4716 50.6084 19.4876C50.7163 19.5036 50.8142 19.5276 50.9022 19.5596C51.042 19.4756 51.1379 19.3817 51.1899 19.2778C51.2418 19.1699 51.2698 19.082 51.2738 19.0141H51.9872C51.9872 19.1539 51.9592 19.2778 51.9032 19.3857C51.8513 19.4936 51.7774 19.5835 51.6814 19.6555C51.5855 19.7234 51.4696 19.7734 51.3338 19.8053C51.4337 19.8933 51.5096 19.9992 51.5616 20.1231C51.6135 20.2469 51.6395 20.3828 51.6395 20.5307C51.6395 20.7505 51.5875 20.9403 51.4836 21.1002C51.3837 21.26 51.2338 21.3839 51.034 21.4718C50.8382 21.5597 50.5964 21.6037 50.3087 21.6037H49.8231C49.7392 21.6037 49.6733 21.6217 49.6253 21.6577C49.5814 21.6936 49.5594 21.7436 49.5594 21.8075C49.5594 21.8595 49.5794 21.9054 49.6193 21.9454C49.6633 21.9854 49.7232 22.0053 49.7992 22.0053H51.1779C51.4137 22.0053 51.6075 22.0833 51.7594 22.2391C51.9152 22.391 51.9932 22.5868 51.9932 22.8266C51.9932 23.0064 51.9452 23.1683 51.8493 23.3122C51.7574 23.456 51.6275 23.5699 51.4596 23.6538C51.2918 23.7378 51.096 23.7797 50.8722 23.7797H49.4455ZM49.7092 23.2522H50.8662C50.9421 23.2522 51.0081 23.2382 51.064 23.2102C51.1239 23.1863 51.1699 23.1503 51.2019 23.1023C51.2378 23.0544 51.2558 23.0004 51.2558 22.9405C51.2558 22.8366 51.2219 22.7587 51.1539 22.7067C51.09 22.6548 51.0101 22.6288 50.9141 22.6288H49.7092C49.6133 22.6288 49.5334 22.6568 49.4695 22.7127C49.4055 22.7726 49.3735 22.8486 49.3735 22.9405C49.3735 23.0324 49.4035 23.1063 49.4635 23.1623C49.5274 23.2222 49.6093 23.2522 49.7092 23.2522ZM50.2787 21.0882C50.4905 21.0882 50.6484 21.0402 50.7523 20.9443C50.8602 20.8444 50.9141 20.7065 50.9141 20.5307C50.9141 20.3548 50.8602 20.219 50.7523 20.1231C50.6484 20.0271 50.4905 19.9792 50.2787 19.9792C50.0669 19.9792 49.9071 20.0271 49.7992 20.1231C49.6952 20.219 49.6433 20.3548 49.6433 20.5307C49.6433 20.6466 49.6653 20.7465 49.7092 20.8304C49.7572 20.9143 49.8271 20.9783 49.919 21.0222C50.015 21.0662 50.1348 21.0882 50.2787 21.0882ZM52.3458 22.6887V19.5356H52.9572L53.0171 20.0331H53.0591C53.0991 19.9332 53.147 19.8413 53.203 19.7574C53.2629 19.6695 53.3389 19.5995 53.4308 19.5476C53.5227 19.4916 53.6346 19.4637 53.7665 19.4637C53.8304 19.4637 53.8884 19.4697 53.9403 19.4816C53.9963 19.4936 54.0382 19.5056 54.0662 19.5176V20.207H53.8444C53.7205 20.207 53.6106 20.225 53.5147 20.2609C53.4188 20.2929 53.3369 20.3449 53.2689 20.4168C53.205 20.4887 53.157 20.5786 53.125 20.6865C53.0931 20.7944 53.0771 20.9203 53.0771 21.0642V22.6887H52.3458Z" fill="#98A8C1"/>
<g clip-path="url(#clip1_25_1496)">
<g clip-path="url(#clip2_25_1496)">
<path d="M52.4897 16.1605C53.4733 16.1605 54.2706 15.3631 54.2706 14.3796C54.2706 13.396 53.4733 12.5986 52.4897 12.5986C51.5061 12.5986 50.7088 13.396 50.7088 14.3796C50.7088 15.3631 51.5061 16.1605 52.4897 16.1605Z" fill="#0166F4"/>
<path d="M25.8622 4.87085V5.55958C24.9995 5.06946 24.0234 4.81424 23.0312 4.81941C22.039 4.82458 21.0655 5.08996 20.208 5.58904C19.3505 6.08812 18.6389 6.80344 18.1442 7.66356C17.6496 8.52369 17.3893 9.49853 17.3893 10.4907C17.3893 11.4829 17.6496 12.4578 18.1442 13.3179C18.6389 14.178 19.3505 14.8933 20.208 15.3924C21.0655 15.8915 22.039 16.1569 23.0312 16.162C24.0234 16.1672 24.9995 15.912 25.8622 15.4219V16.1063H28.9783V4.87085H25.8622ZM23.064 13.2028C22.5277 13.2028 22.0034 13.0437 21.5575 12.7458C21.1116 12.4479 20.7641 12.0244 20.5589 11.5289C20.3536 11.0335 20.2999 10.4883 20.4046 9.96228C20.5092 9.4363 20.7674 8.95315 21.1466 8.57394C21.5258 8.19473 22.009 7.93648 22.535 7.83186C23.061 7.72724 23.6062 7.78093 24.1016 7.98616C24.5971 8.19139 25.0206 8.53893 25.3185 8.98483C25.6164 9.43074 25.7755 9.95498 25.7755 10.4913C25.7755 10.8473 25.7053 11.1999 25.5691 11.5289C25.4328 11.8579 25.2331 12.1568 24.9813 12.4086C24.7295 12.6604 24.4306 12.8601 24.1016 12.9964C23.7726 13.1326 23.42 13.2028 23.064 13.2028Z" fill="#0166F4"/>
<path d="M46.7493 4.86976V5.55848C45.8866 5.06836 44.9105 4.81314 43.9183 4.81831C42.9261 4.82348 41.9526 5.08886 41.0951 5.58794C40.2375 6.08702 39.5259 6.80234 39.0313 7.66247C38.5367 8.52259 38.2764 9.49743 38.2764 10.4896C38.2764 11.4818 38.5367 12.4567 39.0313 13.3168C39.5259 14.1769 40.2375 14.8922 41.0951 15.3913C41.9526 15.8904 42.9261 16.1558 43.9183 16.1609C44.9105 16.1661 45.8866 15.9109 46.7493 15.4208V16.1052H49.8654V4.86976H46.7493ZM43.95 13.2017C43.4137 13.2017 42.8894 13.0427 42.4435 12.7447C41.9976 12.4468 41.6501 12.0233 41.4449 11.5278C41.2396 11.0324 41.1859 10.4872 41.2906 9.96118C41.3952 9.4352 41.6534 8.95205 42.0326 8.57284C42.4118 8.19363 42.895 7.93539 43.421 7.83076C43.947 7.72614 44.4921 7.77983 44.9876 7.98506C45.4831 8.19029 45.9066 8.53783 46.2045 8.98374C46.5024 9.42964 46.6615 9.95388 46.6615 10.4902C46.6615 10.8462 46.5913 11.1988 46.4551 11.5278C46.3188 11.8568 46.1191 12.1557 45.8673 12.4075C45.6155 12.6593 45.3166 12.859 44.9876 12.9953C44.6586 13.1315 44.306 13.2017 43.95 13.2017Z" fill="#0166F4"/>
<path d="M33.153 0.377686L30.037 0.377686V16.1597H33.153V0.377686Z" fill="#0166F4"/>
<path d="M37.3305 0.377197L34.2144 0.377197V16.1593H37.3305V0.377197Z" fill="#0166F4"/>
<path d="M8.71544 13.0445C7.64922 13.041 6.61388 12.6862 5.7695 12.0352C4.92511 11.3842 4.31872 10.4731 4.04406 9.44285C3.76941 8.41261 3.8418 7.32058 4.25004 6.33561C4.65828 5.35064 5.37963 4.52758 6.30256 3.9937C7.22549 3.45982 8.29859 3.24486 9.35595 3.38203C10.4133 3.51921 11.396 4.0009 12.1522 4.75262C12.9083 5.50434 13.3958 6.48422 13.5391 7.54075C13.6825 8.59729 13.4738 9.67164 12.9454 10.5977L14.5951 13.5261C15.8631 12.1308 16.5916 10.3289 16.6496 8.4444C16.7075 6.55991 16.0911 4.7166 14.9112 3.24607C13.7313 1.77554 12.0653 0.774314 10.2131 0.422517C8.36079 0.0707201 6.44378 0.391442 4.80689 1.32699C3.17 2.26253 1.92068 3.75149 1.28368 5.52599C0.646679 7.3005 0.66381 9.24408 1.33199 11.0071C2.00017 12.7701 3.27554 14.2368 4.92867 15.1433C6.58179 16.0499 8.50416 16.3368 10.3499 15.9524L8.71544 13.0445Z" fill="#0166F4"/>
<path d="M11.6503 16.1599H14.8749L9.39002 6.41907H6.1655L11.6503 16.1599Z" fill="#0166F4"/>
</g>
</g>
</g>
<defs>
<clipPath id="clip0_25_1496">
<rect width="53.5227" height="26.1191" fill="white" transform="translate(0.822784 0.272827)"/>
</clipPath>
<clipPath id="clip1_25_1496">
<rect width="53.4677" height="15.8905" fill="white" transform="translate(0.821503 0.272705)"/>
</clipPath>
<clipPath id="clip2_25_1496">
<rect width="53.4677" height="15.8905" fill="white" transform="translate(0.814209 0.272217)"/>
</clipPath>
</defs>
</svg>
